<mxfile host="app.diagrams.net" agent="Mozilla/5.0 (Windows NT 10.0; Win64; x64) AppleWebKit/537.36 (KHTML, like Gecko) Chrome/131.0.0.0 Safari/537.36 Edg/131.0.0.0" version="25.0.1">
  <diagram name="หน้า-1" id="Ji_WQ_MO0JxOXG2rQ4yz">
    <mxGraphModel dx="2414" dy="711" grid="1" gridSize="10" guides="1" tooltips="1" connect="1" arrows="1" fold="1" page="1" pageScale="1" pageWidth="827" pageHeight="1169" math="0" shadow="0">
      <root>
        <mxCell id="0" />
        <mxCell id="1" parent="0" />
        <mxCell id="B13nr5ae3nLlpFpf0Mui-1" value="" style="edgeStyle=orthogonalEdgeStyle;rounded=0;orthogonalLoop=1;jettySize=auto;html=1;" edge="1" parent="1" source="B13nr5ae3nLlpFpf0Mui-2" target="B13nr5ae3nLlpFpf0Mui-4">
          <mxGeometry relative="1" as="geometry" />
        </mxCell>
        <mxCell id="B13nr5ae3nLlpFpf0Mui-2" value="เลขเป็นคำ" style="ellipse;whiteSpace=wrap;html=1;" vertex="1" parent="1">
          <mxGeometry x="-770" y="10" width="120" height="80" as="geometry" />
        </mxCell>
        <mxCell id="B13nr5ae3nLlpFpf0Mui-3" value="" style="edgeStyle=orthogonalEdgeStyle;rounded=0;orthogonalLoop=1;jettySize=auto;html=1;" edge="1" parent="1" source="B13nr5ae3nLlpFpf0Mui-4" target="B13nr5ae3nLlpFpf0Mui-8">
          <mxGeometry relative="1" as="geometry" />
        </mxCell>
        <mxCell id="B13nr5ae3nLlpFpf0Mui-4" value="ข้อมูล User" style="shape=parallelogram;perimeter=parallelogramPerimeter;whiteSpace=wrap;html=1;fixedSize=1;" vertex="1" parent="1">
          <mxGeometry x="-805" y="120" width="190" height="60" as="geometry" />
        </mxCell>
        <mxCell id="B13nr5ae3nLlpFpf0Mui-5" value="" style="edgeStyle=orthogonalEdgeStyle;rounded=0;orthogonalLoop=1;jettySize=auto;html=1;" edge="1" parent="1" source="B13nr5ae3nLlpFpf0Mui-8" target="B13nr5ae3nLlpFpf0Mui-11">
          <mxGeometry relative="1" as="geometry" />
        </mxCell>
        <mxCell id="B13nr5ae3nLlpFpf0Mui-6" value="" style="edgeStyle=orthogonalEdgeStyle;rounded=0;orthogonalLoop=1;jettySize=auto;html=1;" edge="1" parent="1" source="B13nr5ae3nLlpFpf0Mui-8" target="B13nr5ae3nLlpFpf0Mui-56">
          <mxGeometry relative="1" as="geometry" />
        </mxCell>
        <mxCell id="B13nr5ae3nLlpFpf0Mui-7" value="" style="edgeStyle=orthogonalEdgeStyle;rounded=0;orthogonalLoop=1;jettySize=auto;html=1;" edge="1" parent="1" source="B13nr5ae3nLlpFpf0Mui-119" target="B13nr5ae3nLlpFpf0Mui-56">
          <mxGeometry relative="1" as="geometry" />
        </mxCell>
        <mxCell id="B13nr5ae3nLlpFpf0Mui-8" value="ค่าที่ได้เป็นเลข 0" style="rhombus;whiteSpace=wrap;html=1;" vertex="1" parent="1">
          <mxGeometry x="-770" y="210" width="120" height="100" as="geometry" />
        </mxCell>
        <mxCell id="B13nr5ae3nLlpFpf0Mui-9" value="" style="edgeStyle=orthogonalEdgeStyle;rounded=0;orthogonalLoop=1;jettySize=auto;html=1;" edge="1" parent="1" source="B13nr5ae3nLlpFpf0Mui-11" target="B13nr5ae3nLlpFpf0Mui-14">
          <mxGeometry relative="1" as="geometry" />
        </mxCell>
        <mxCell id="B13nr5ae3nLlpFpf0Mui-10" value="" style="edgeStyle=orthogonalEdgeStyle;rounded=0;orthogonalLoop=1;jettySize=auto;html=1;" edge="1" parent="1" source="B13nr5ae3nLlpFpf0Mui-121" target="B13nr5ae3nLlpFpf0Mui-58">
          <mxGeometry relative="1" as="geometry" />
        </mxCell>
        <mxCell id="B13nr5ae3nLlpFpf0Mui-11" value="ค่าที่ได้เป็นเลข 1" style="rhombus;whiteSpace=wrap;html=1;" vertex="1" parent="1">
          <mxGeometry x="-770" y="340" width="120" height="100" as="geometry" />
        </mxCell>
        <mxCell id="B13nr5ae3nLlpFpf0Mui-12" value="" style="edgeStyle=orthogonalEdgeStyle;rounded=0;orthogonalLoop=1;jettySize=auto;html=1;" edge="1" parent="1" source="B13nr5ae3nLlpFpf0Mui-14" target="B13nr5ae3nLlpFpf0Mui-18">
          <mxGeometry relative="1" as="geometry" />
        </mxCell>
        <mxCell id="B13nr5ae3nLlpFpf0Mui-13" value="" style="edgeStyle=orthogonalEdgeStyle;rounded=0;orthogonalLoop=1;jettySize=auto;html=1;" edge="1" parent="1" source="B13nr5ae3nLlpFpf0Mui-124" target="B13nr5ae3nLlpFpf0Mui-60">
          <mxGeometry relative="1" as="geometry" />
        </mxCell>
        <mxCell id="B13nr5ae3nLlpFpf0Mui-14" value="ค่าที่ได้เป็นเลข 2" style="rhombus;whiteSpace=wrap;html=1;" vertex="1" parent="1">
          <mxGeometry x="-770" y="470" width="120" height="100" as="geometry" />
        </mxCell>
        <mxCell id="B13nr5ae3nLlpFpf0Mui-15" value="" style="edgeStyle=orthogonalEdgeStyle;rounded=0;orthogonalLoop=1;jettySize=auto;html=1;" edge="1" parent="1" source="B13nr5ae3nLlpFpf0Mui-18" target="B13nr5ae3nLlpFpf0Mui-24">
          <mxGeometry relative="1" as="geometry" />
        </mxCell>
        <mxCell id="B13nr5ae3nLlpFpf0Mui-16" value="" style="edgeStyle=orthogonalEdgeStyle;rounded=0;orthogonalLoop=1;jettySize=auto;html=1;" edge="1" parent="1" source="B13nr5ae3nLlpFpf0Mui-18" target="B13nr5ae3nLlpFpf0Mui-62">
          <mxGeometry relative="1" as="geometry" />
        </mxCell>
        <mxCell id="B13nr5ae3nLlpFpf0Mui-17" value="" style="edgeStyle=orthogonalEdgeStyle;rounded=0;orthogonalLoop=1;jettySize=auto;html=1;" edge="1" parent="1" source="B13nr5ae3nLlpFpf0Mui-126" target="B13nr5ae3nLlpFpf0Mui-62">
          <mxGeometry relative="1" as="geometry" />
        </mxCell>
        <mxCell id="B13nr5ae3nLlpFpf0Mui-18" value="ค่าที่ได้เป็นเลข 3" style="rhombus;whiteSpace=wrap;html=1;" vertex="1" parent="1">
          <mxGeometry x="-770" y="600" width="120" height="100" as="geometry" />
        </mxCell>
        <mxCell id="B13nr5ae3nLlpFpf0Mui-19" value="" style="edgeStyle=orthogonalEdgeStyle;rounded=0;orthogonalLoop=1;jettySize=auto;html=1;" edge="1" parent="1" source="B13nr5ae3nLlpFpf0Mui-21" target="B13nr5ae3nLlpFpf0Mui-30">
          <mxGeometry relative="1" as="geometry" />
        </mxCell>
        <mxCell id="B13nr5ae3nLlpFpf0Mui-20" value="" style="edgeStyle=orthogonalEdgeStyle;rounded=0;orthogonalLoop=1;jettySize=auto;html=1;" edge="1" parent="1" source="B13nr5ae3nLlpFpf0Mui-130" target="B13nr5ae3nLlpFpf0Mui-66">
          <mxGeometry relative="1" as="geometry" />
        </mxCell>
        <mxCell id="B13nr5ae3nLlpFpf0Mui-21" value="ค่าที่ได้เป็นเลข 5" style="rhombus;whiteSpace=wrap;html=1;" vertex="1" parent="1">
          <mxGeometry x="-770" y="850" width="120" height="100" as="geometry" />
        </mxCell>
        <mxCell id="B13nr5ae3nLlpFpf0Mui-22" value="" style="edgeStyle=orthogonalEdgeStyle;rounded=0;orthogonalLoop=1;jettySize=auto;html=1;" edge="1" parent="1" source="B13nr5ae3nLlpFpf0Mui-24" target="B13nr5ae3nLlpFpf0Mui-21">
          <mxGeometry relative="1" as="geometry" />
        </mxCell>
        <mxCell id="B13nr5ae3nLlpFpf0Mui-23" value="" style="edgeStyle=orthogonalEdgeStyle;rounded=0;orthogonalLoop=1;jettySize=auto;html=1;" edge="1" parent="1" source="B13nr5ae3nLlpFpf0Mui-128" target="B13nr5ae3nLlpFpf0Mui-64">
          <mxGeometry relative="1" as="geometry" />
        </mxCell>
        <mxCell id="B13nr5ae3nLlpFpf0Mui-24" value="ค่าที่ได้เป็นเลข 4" style="rhombus;whiteSpace=wrap;html=1;" vertex="1" parent="1">
          <mxGeometry x="-770" y="730" width="120" height="100" as="geometry" />
        </mxCell>
        <mxCell id="B13nr5ae3nLlpFpf0Mui-25" value="" style="edgeStyle=orthogonalEdgeStyle;rounded=0;orthogonalLoop=1;jettySize=auto;html=1;" edge="1" parent="1" source="B13nr5ae3nLlpFpf0Mui-27" target="B13nr5ae3nLlpFpf0Mui-33">
          <mxGeometry relative="1" as="geometry" />
        </mxCell>
        <mxCell id="B13nr5ae3nLlpFpf0Mui-26" value="" style="edgeStyle=orthogonalEdgeStyle;rounded=0;orthogonalLoop=1;jettySize=auto;html=1;" edge="1" parent="1" source="B13nr5ae3nLlpFpf0Mui-134" target="B13nr5ae3nLlpFpf0Mui-70">
          <mxGeometry relative="1" as="geometry" />
        </mxCell>
        <mxCell id="B13nr5ae3nLlpFpf0Mui-27" value="ค่าที่ได้เป็นเลข 7" style="rhombus;whiteSpace=wrap;html=1;" vertex="1" parent="1">
          <mxGeometry x="-770" y="1110" width="120" height="100" as="geometry" />
        </mxCell>
        <mxCell id="B13nr5ae3nLlpFpf0Mui-28" value="" style="edgeStyle=orthogonalEdgeStyle;rounded=0;orthogonalLoop=1;jettySize=auto;html=1;" edge="1" parent="1" source="B13nr5ae3nLlpFpf0Mui-30" target="B13nr5ae3nLlpFpf0Mui-27">
          <mxGeometry relative="1" as="geometry" />
        </mxCell>
        <mxCell id="B13nr5ae3nLlpFpf0Mui-29" value="" style="edgeStyle=orthogonalEdgeStyle;rounded=0;orthogonalLoop=1;jettySize=auto;html=1;" edge="1" parent="1" source="B13nr5ae3nLlpFpf0Mui-132" target="B13nr5ae3nLlpFpf0Mui-68">
          <mxGeometry relative="1" as="geometry" />
        </mxCell>
        <mxCell id="B13nr5ae3nLlpFpf0Mui-30" value="ค่าที่ได้เป็นเลข 6" style="rhombus;whiteSpace=wrap;html=1;" vertex="1" parent="1">
          <mxGeometry x="-770" y="980" width="120" height="100" as="geometry" />
        </mxCell>
        <mxCell id="B13nr5ae3nLlpFpf0Mui-31" value="" style="edgeStyle=orthogonalEdgeStyle;rounded=0;orthogonalLoop=1;jettySize=auto;html=1;" edge="1" parent="1" source="B13nr5ae3nLlpFpf0Mui-33" target="B13nr5ae3nLlpFpf0Mui-36">
          <mxGeometry relative="1" as="geometry" />
        </mxCell>
        <mxCell id="B13nr5ae3nLlpFpf0Mui-32" value="" style="edgeStyle=orthogonalEdgeStyle;rounded=0;orthogonalLoop=1;jettySize=auto;html=1;" edge="1" parent="1" source="B13nr5ae3nLlpFpf0Mui-136" target="B13nr5ae3nLlpFpf0Mui-72">
          <mxGeometry relative="1" as="geometry" />
        </mxCell>
        <mxCell id="B13nr5ae3nLlpFpf0Mui-33" value="ค่าที่ได้เป็นเลข 8" style="rhombus;whiteSpace=wrap;html=1;" vertex="1" parent="1">
          <mxGeometry x="-770" y="1250" width="120" height="100" as="geometry" />
        </mxCell>
        <mxCell id="B13nr5ae3nLlpFpf0Mui-34" value="" style="edgeStyle=orthogonalEdgeStyle;rounded=0;orthogonalLoop=1;jettySize=auto;html=1;" edge="1" parent="1" source="B13nr5ae3nLlpFpf0Mui-36" target="B13nr5ae3nLlpFpf0Mui-39">
          <mxGeometry relative="1" as="geometry" />
        </mxCell>
        <mxCell id="B13nr5ae3nLlpFpf0Mui-35" value="" style="edgeStyle=orthogonalEdgeStyle;rounded=0;orthogonalLoop=1;jettySize=auto;html=1;" edge="1" parent="1" source="B13nr5ae3nLlpFpf0Mui-138" target="B13nr5ae3nLlpFpf0Mui-74">
          <mxGeometry relative="1" as="geometry" />
        </mxCell>
        <mxCell id="B13nr5ae3nLlpFpf0Mui-36" value="ค่าที่ได้เป็นเลข 9" style="rhombus;whiteSpace=wrap;html=1;" vertex="1" parent="1">
          <mxGeometry x="-770" y="1400" width="120" height="100" as="geometry" />
        </mxCell>
        <mxCell id="B13nr5ae3nLlpFpf0Mui-37" value="" style="edgeStyle=orthogonalEdgeStyle;rounded=0;orthogonalLoop=1;jettySize=auto;html=1;" edge="1" parent="1" source="B13nr5ae3nLlpFpf0Mui-39" target="B13nr5ae3nLlpFpf0Mui-42">
          <mxGeometry relative="1" as="geometry" />
        </mxCell>
        <mxCell id="B13nr5ae3nLlpFpf0Mui-38" value="" style="edgeStyle=orthogonalEdgeStyle;rounded=0;orthogonalLoop=1;jettySize=auto;html=1;" edge="1" parent="1" source="B13nr5ae3nLlpFpf0Mui-140" target="B13nr5ae3nLlpFpf0Mui-76">
          <mxGeometry relative="1" as="geometry" />
        </mxCell>
        <mxCell id="B13nr5ae3nLlpFpf0Mui-39" value="ค่าที่ได้เป็นเลข A/a" style="rhombus;whiteSpace=wrap;html=1;" vertex="1" parent="1">
          <mxGeometry x="-770" y="1540" width="120" height="100" as="geometry" />
        </mxCell>
        <mxCell id="B13nr5ae3nLlpFpf0Mui-40" value="" style="edgeStyle=orthogonalEdgeStyle;rounded=0;orthogonalLoop=1;jettySize=auto;html=1;" edge="1" parent="1" source="B13nr5ae3nLlpFpf0Mui-42" target="B13nr5ae3nLlpFpf0Mui-45">
          <mxGeometry relative="1" as="geometry" />
        </mxCell>
        <mxCell id="B13nr5ae3nLlpFpf0Mui-41" value="" style="edgeStyle=orthogonalEdgeStyle;rounded=0;orthogonalLoop=1;jettySize=auto;html=1;" edge="1" parent="1" source="B13nr5ae3nLlpFpf0Mui-142" target="B13nr5ae3nLlpFpf0Mui-78">
          <mxGeometry relative="1" as="geometry" />
        </mxCell>
        <mxCell id="B13nr5ae3nLlpFpf0Mui-42" value="ค่าที่ได้เป็นเลข B/b" style="rhombus;whiteSpace=wrap;html=1;" vertex="1" parent="1">
          <mxGeometry x="-770" y="1680" width="120" height="100" as="geometry" />
        </mxCell>
        <mxCell id="B13nr5ae3nLlpFpf0Mui-43" value="" style="edgeStyle=orthogonalEdgeStyle;rounded=0;orthogonalLoop=1;jettySize=auto;html=1;" edge="1" parent="1" source="B13nr5ae3nLlpFpf0Mui-45" target="B13nr5ae3nLlpFpf0Mui-48">
          <mxGeometry relative="1" as="geometry" />
        </mxCell>
        <mxCell id="B13nr5ae3nLlpFpf0Mui-44" value="" style="edgeStyle=orthogonalEdgeStyle;rounded=0;orthogonalLoop=1;jettySize=auto;html=1;" edge="1" parent="1" source="B13nr5ae3nLlpFpf0Mui-144" target="B13nr5ae3nLlpFpf0Mui-80">
          <mxGeometry relative="1" as="geometry" />
        </mxCell>
        <mxCell id="B13nr5ae3nLlpFpf0Mui-45" value="ค่าที่ได้เป็นเลข C/c" style="rhombus;whiteSpace=wrap;html=1;" vertex="1" parent="1">
          <mxGeometry x="-770" y="1820" width="120" height="100" as="geometry" />
        </mxCell>
        <mxCell id="B13nr5ae3nLlpFpf0Mui-46" value="" style="edgeStyle=orthogonalEdgeStyle;rounded=0;orthogonalLoop=1;jettySize=auto;html=1;" edge="1" parent="1" source="B13nr5ae3nLlpFpf0Mui-48" target="B13nr5ae3nLlpFpf0Mui-51">
          <mxGeometry relative="1" as="geometry" />
        </mxCell>
        <mxCell id="B13nr5ae3nLlpFpf0Mui-47" value="" style="edgeStyle=orthogonalEdgeStyle;rounded=0;orthogonalLoop=1;jettySize=auto;html=1;" edge="1" parent="1" source="B13nr5ae3nLlpFpf0Mui-146" target="B13nr5ae3nLlpFpf0Mui-82">
          <mxGeometry relative="1" as="geometry" />
        </mxCell>
        <mxCell id="B13nr5ae3nLlpFpf0Mui-48" value="ค่าที่ได้เป็นเลขD/d" style="rhombus;whiteSpace=wrap;html=1;" vertex="1" parent="1">
          <mxGeometry x="-770" y="1960" width="120" height="100" as="geometry" />
        </mxCell>
        <mxCell id="B13nr5ae3nLlpFpf0Mui-49" value="" style="edgeStyle=orthogonalEdgeStyle;rounded=0;orthogonalLoop=1;jettySize=auto;html=1;" edge="1" parent="1" source="B13nr5ae3nLlpFpf0Mui-51" target="B13nr5ae3nLlpFpf0Mui-54">
          <mxGeometry relative="1" as="geometry" />
        </mxCell>
        <mxCell id="B13nr5ae3nLlpFpf0Mui-50" value="" style="edgeStyle=orthogonalEdgeStyle;rounded=0;orthogonalLoop=1;jettySize=auto;html=1;" edge="1" parent="1" source="B13nr5ae3nLlpFpf0Mui-148" target="B13nr5ae3nLlpFpf0Mui-84">
          <mxGeometry relative="1" as="geometry" />
        </mxCell>
        <mxCell id="B13nr5ae3nLlpFpf0Mui-51" value="ค่าที่ได้เป็นเลขE/e" style="rhombus;whiteSpace=wrap;html=1;" vertex="1" parent="1">
          <mxGeometry x="-770" y="2090" width="120" height="100" as="geometry" />
        </mxCell>
        <mxCell id="B13nr5ae3nLlpFpf0Mui-52" value="" style="edgeStyle=orthogonalEdgeStyle;rounded=0;orthogonalLoop=1;jettySize=auto;html=1;entryX=0.5;entryY=0;entryDx=0;entryDy=0;" edge="1" parent="1" source="B13nr5ae3nLlpFpf0Mui-54" target="B13nr5ae3nLlpFpf0Mui-288">
          <mxGeometry relative="1" as="geometry">
            <mxPoint x="-710.4799999999996" y="2388.2" as="targetPoint" />
          </mxGeometry>
        </mxCell>
        <mxCell id="B13nr5ae3nLlpFpf0Mui-53" value="" style="edgeStyle=orthogonalEdgeStyle;rounded=0;orthogonalLoop=1;jettySize=auto;html=1;" edge="1" parent="1" source="B13nr5ae3nLlpFpf0Mui-150" target="B13nr5ae3nLlpFpf0Mui-86">
          <mxGeometry relative="1" as="geometry" />
        </mxCell>
        <mxCell id="B13nr5ae3nLlpFpf0Mui-54" value="ค่าที่ได้เป็นเลขF/f" style="rhombus;whiteSpace=wrap;html=1;" vertex="1" parent="1">
          <mxGeometry x="-770" y="2220" width="120" height="100" as="geometry" />
        </mxCell>
        <mxCell id="B13nr5ae3nLlpFpf0Mui-55" value="" style="edgeStyle=orthogonalEdgeStyle;rounded=0;orthogonalLoop=1;jettySize=auto;html=1;" edge="1" parent="1" source="B13nr5ae3nLlpFpf0Mui-56" target="B13nr5ae3nLlpFpf0Mui-58">
          <mxGeometry relative="1" as="geometry" />
        </mxCell>
        <mxCell id="B13nr5ae3nLlpFpf0Mui-56" value="" style="ellipse;whiteSpace=wrap;html=1;aspect=fixed;" vertex="1" parent="1">
          <mxGeometry x="-330" y="247.5" width="25" height="25" as="geometry" />
        </mxCell>
        <mxCell id="B13nr5ae3nLlpFpf0Mui-57" value="" style="edgeStyle=orthogonalEdgeStyle;rounded=0;orthogonalLoop=1;jettySize=auto;html=1;" edge="1" parent="1" source="B13nr5ae3nLlpFpf0Mui-58" target="B13nr5ae3nLlpFpf0Mui-60">
          <mxGeometry relative="1" as="geometry" />
        </mxCell>
        <mxCell id="B13nr5ae3nLlpFpf0Mui-58" value="" style="ellipse;whiteSpace=wrap;html=1;aspect=fixed;" vertex="1" parent="1">
          <mxGeometry x="-330" y="377.5" width="25" height="25" as="geometry" />
        </mxCell>
        <mxCell id="B13nr5ae3nLlpFpf0Mui-59" value="" style="edgeStyle=orthogonalEdgeStyle;rounded=0;orthogonalLoop=1;jettySize=auto;html=1;" edge="1" parent="1" source="B13nr5ae3nLlpFpf0Mui-60" target="B13nr5ae3nLlpFpf0Mui-62">
          <mxGeometry relative="1" as="geometry" />
        </mxCell>
        <mxCell id="B13nr5ae3nLlpFpf0Mui-60" value="" style="ellipse;whiteSpace=wrap;html=1;aspect=fixed;" vertex="1" parent="1">
          <mxGeometry x="-330" y="507.5" width="25" height="25" as="geometry" />
        </mxCell>
        <mxCell id="B13nr5ae3nLlpFpf0Mui-61" value="" style="edgeStyle=orthogonalEdgeStyle;rounded=0;orthogonalLoop=1;jettySize=auto;html=1;" edge="1" parent="1" source="B13nr5ae3nLlpFpf0Mui-62" target="B13nr5ae3nLlpFpf0Mui-64">
          <mxGeometry relative="1" as="geometry" />
        </mxCell>
        <mxCell id="B13nr5ae3nLlpFpf0Mui-62" value="" style="ellipse;whiteSpace=wrap;html=1;aspect=fixed;" vertex="1" parent="1">
          <mxGeometry x="-330" y="637.5" width="25" height="25" as="geometry" />
        </mxCell>
        <mxCell id="B13nr5ae3nLlpFpf0Mui-63" value="" style="edgeStyle=orthogonalEdgeStyle;rounded=0;orthogonalLoop=1;jettySize=auto;html=1;" edge="1" parent="1" source="B13nr5ae3nLlpFpf0Mui-64" target="B13nr5ae3nLlpFpf0Mui-66">
          <mxGeometry relative="1" as="geometry" />
        </mxCell>
        <mxCell id="B13nr5ae3nLlpFpf0Mui-64" value="" style="ellipse;whiteSpace=wrap;html=1;aspect=fixed;" vertex="1" parent="1">
          <mxGeometry x="-328.75" y="768.75" width="22.5" height="22.5" as="geometry" />
        </mxCell>
        <mxCell id="B13nr5ae3nLlpFpf0Mui-65" value="" style="edgeStyle=orthogonalEdgeStyle;rounded=0;orthogonalLoop=1;jettySize=auto;html=1;" edge="1" parent="1" source="B13nr5ae3nLlpFpf0Mui-66" target="B13nr5ae3nLlpFpf0Mui-68">
          <mxGeometry relative="1" as="geometry" />
        </mxCell>
        <mxCell id="B13nr5ae3nLlpFpf0Mui-66" value="" style="ellipse;whiteSpace=wrap;html=1;aspect=fixed;" vertex="1" parent="1">
          <mxGeometry x="-330" y="887.5" width="25" height="25" as="geometry" />
        </mxCell>
        <mxCell id="B13nr5ae3nLlpFpf0Mui-67" value="" style="edgeStyle=orthogonalEdgeStyle;rounded=0;orthogonalLoop=1;jettySize=auto;html=1;" edge="1" parent="1" source="B13nr5ae3nLlpFpf0Mui-68" target="B13nr5ae3nLlpFpf0Mui-70">
          <mxGeometry relative="1" as="geometry" />
        </mxCell>
        <mxCell id="B13nr5ae3nLlpFpf0Mui-68" value="" style="ellipse;whiteSpace=wrap;html=1;aspect=fixed;" vertex="1" parent="1">
          <mxGeometry x="-330" y="1017.5" width="25" height="25" as="geometry" />
        </mxCell>
        <mxCell id="B13nr5ae3nLlpFpf0Mui-69" value="" style="edgeStyle=orthogonalEdgeStyle;rounded=0;orthogonalLoop=1;jettySize=auto;html=1;" edge="1" parent="1" source="B13nr5ae3nLlpFpf0Mui-70" target="B13nr5ae3nLlpFpf0Mui-72">
          <mxGeometry relative="1" as="geometry" />
        </mxCell>
        <mxCell id="B13nr5ae3nLlpFpf0Mui-70" value="" style="ellipse;whiteSpace=wrap;html=1;aspect=fixed;" vertex="1" parent="1">
          <mxGeometry x="-330" y="1147.5" width="25" height="25" as="geometry" />
        </mxCell>
        <mxCell id="B13nr5ae3nLlpFpf0Mui-71" style="edgeStyle=orthogonalEdgeStyle;rounded=0;orthogonalLoop=1;jettySize=auto;html=1;entryX=0.5;entryY=0;entryDx=0;entryDy=0;" edge="1" parent="1" source="B13nr5ae3nLlpFpf0Mui-72" target="B13nr5ae3nLlpFpf0Mui-74">
          <mxGeometry relative="1" as="geometry" />
        </mxCell>
        <mxCell id="B13nr5ae3nLlpFpf0Mui-72" value="" style="ellipse;whiteSpace=wrap;html=1;aspect=fixed;" vertex="1" parent="1">
          <mxGeometry x="-330" y="1287.5" width="25" height="25" as="geometry" />
        </mxCell>
        <mxCell id="B13nr5ae3nLlpFpf0Mui-73" value="" style="edgeStyle=orthogonalEdgeStyle;rounded=0;orthogonalLoop=1;jettySize=auto;html=1;" edge="1" parent="1" source="B13nr5ae3nLlpFpf0Mui-74" target="B13nr5ae3nLlpFpf0Mui-76">
          <mxGeometry relative="1" as="geometry" />
        </mxCell>
        <mxCell id="B13nr5ae3nLlpFpf0Mui-74" value="" style="ellipse;whiteSpace=wrap;html=1;aspect=fixed;" vertex="1" parent="1">
          <mxGeometry x="-330" y="1437.5" width="25" height="25" as="geometry" />
        </mxCell>
        <mxCell id="B13nr5ae3nLlpFpf0Mui-75" value="" style="edgeStyle=orthogonalEdgeStyle;rounded=0;orthogonalLoop=1;jettySize=auto;html=1;" edge="1" parent="1" source="B13nr5ae3nLlpFpf0Mui-76" target="B13nr5ae3nLlpFpf0Mui-78">
          <mxGeometry relative="1" as="geometry" />
        </mxCell>
        <mxCell id="B13nr5ae3nLlpFpf0Mui-76" value="" style="ellipse;whiteSpace=wrap;html=1;aspect=fixed;" vertex="1" parent="1">
          <mxGeometry x="-330" y="1577.5" width="25" height="25" as="geometry" />
        </mxCell>
        <mxCell id="B13nr5ae3nLlpFpf0Mui-77" value="" style="edgeStyle=orthogonalEdgeStyle;rounded=0;orthogonalLoop=1;jettySize=auto;html=1;" edge="1" parent="1" source="B13nr5ae3nLlpFpf0Mui-78" target="B13nr5ae3nLlpFpf0Mui-80">
          <mxGeometry relative="1" as="geometry" />
        </mxCell>
        <mxCell id="B13nr5ae3nLlpFpf0Mui-78" value="" style="ellipse;whiteSpace=wrap;html=1;aspect=fixed;" vertex="1" parent="1">
          <mxGeometry x="-330" y="1717.5" width="25" height="25" as="geometry" />
        </mxCell>
        <mxCell id="B13nr5ae3nLlpFpf0Mui-79" value="" style="edgeStyle=orthogonalEdgeStyle;rounded=0;orthogonalLoop=1;jettySize=auto;html=1;" edge="1" parent="1" source="B13nr5ae3nLlpFpf0Mui-80" target="B13nr5ae3nLlpFpf0Mui-82">
          <mxGeometry relative="1" as="geometry" />
        </mxCell>
        <mxCell id="B13nr5ae3nLlpFpf0Mui-80" value="" style="ellipse;whiteSpace=wrap;html=1;aspect=fixed;" vertex="1" parent="1">
          <mxGeometry x="-330" y="1857.5" width="25" height="25" as="geometry" />
        </mxCell>
        <mxCell id="B13nr5ae3nLlpFpf0Mui-81" value="" style="edgeStyle=orthogonalEdgeStyle;rounded=0;orthogonalLoop=1;jettySize=auto;html=1;" edge="1" parent="1" source="B13nr5ae3nLlpFpf0Mui-82" target="B13nr5ae3nLlpFpf0Mui-84">
          <mxGeometry relative="1" as="geometry" />
        </mxCell>
        <mxCell id="B13nr5ae3nLlpFpf0Mui-82" value="" style="ellipse;whiteSpace=wrap;html=1;aspect=fixed;" vertex="1" parent="1">
          <mxGeometry x="-330" y="1997.5" width="25" height="25" as="geometry" />
        </mxCell>
        <mxCell id="B13nr5ae3nLlpFpf0Mui-83" value="" style="edgeStyle=orthogonalEdgeStyle;rounded=0;orthogonalLoop=1;jettySize=auto;html=1;" edge="1" parent="1" source="B13nr5ae3nLlpFpf0Mui-84" target="B13nr5ae3nLlpFpf0Mui-86">
          <mxGeometry relative="1" as="geometry" />
        </mxCell>
        <mxCell id="B13nr5ae3nLlpFpf0Mui-84" value="" style="ellipse;whiteSpace=wrap;html=1;aspect=fixed;" vertex="1" parent="1">
          <mxGeometry x="-330" y="2127.5" width="25" height="25" as="geometry" />
        </mxCell>
        <mxCell id="B13nr5ae3nLlpFpf0Mui-85" style="edgeStyle=orthogonalEdgeStyle;rounded=0;orthogonalLoop=1;jettySize=auto;html=1;entryX=1;entryY=0.5;entryDx=0;entryDy=0;" edge="1" parent="1" source="B13nr5ae3nLlpFpf0Mui-86" target="B13nr5ae3nLlpFpf0Mui-288">
          <mxGeometry relative="1" as="geometry">
            <mxPoint x="-317.5" y="2427.5" as="targetPoint" />
            <Array as="points">
              <mxPoint x="-317" y="2433" />
              <mxPoint x="-514" y="2433" />
            </Array>
          </mxGeometry>
        </mxCell>
        <mxCell id="B13nr5ae3nLlpFpf0Mui-86" value="" style="ellipse;whiteSpace=wrap;html=1;aspect=fixed;" vertex="1" parent="1">
          <mxGeometry x="-330" y="2257.5" width="25" height="25" as="geometry" />
        </mxCell>
        <mxCell id="B13nr5ae3nLlpFpf0Mui-87" value="N" style="text;html=1;align=center;verticalAlign=middle;whiteSpace=wrap;rounded=0;" vertex="1" parent="1">
          <mxGeometry x="-720" y="305" width="60" height="30" as="geometry" />
        </mxCell>
        <mxCell id="B13nr5ae3nLlpFpf0Mui-88" value="N" style="text;html=1;align=center;verticalAlign=middle;whiteSpace=wrap;rounded=0;" vertex="1" parent="1">
          <mxGeometry x="-720" y="430" width="60" height="30" as="geometry" />
        </mxCell>
        <mxCell id="B13nr5ae3nLlpFpf0Mui-89" value="N" style="text;html=1;align=center;verticalAlign=middle;whiteSpace=wrap;rounded=0;" vertex="1" parent="1">
          <mxGeometry x="-720" y="570" width="60" height="30" as="geometry" />
        </mxCell>
        <mxCell id="B13nr5ae3nLlpFpf0Mui-90" value="N" style="text;html=1;align=center;verticalAlign=middle;whiteSpace=wrap;rounded=0;" vertex="1" parent="1">
          <mxGeometry x="-720" y="690" width="60" height="30" as="geometry" />
        </mxCell>
        <mxCell id="B13nr5ae3nLlpFpf0Mui-91" value="N" style="text;html=1;align=center;verticalAlign=middle;whiteSpace=wrap;rounded=0;" vertex="1" parent="1">
          <mxGeometry x="-720" y="820" width="60" height="30" as="geometry" />
        </mxCell>
        <mxCell id="B13nr5ae3nLlpFpf0Mui-92" value="N" style="text;html=1;align=center;verticalAlign=middle;whiteSpace=wrap;rounded=0;" vertex="1" parent="1">
          <mxGeometry x="-720" y="940" width="60" height="30" as="geometry" />
        </mxCell>
        <mxCell id="B13nr5ae3nLlpFpf0Mui-93" value="N" style="text;html=1;align=center;verticalAlign=middle;whiteSpace=wrap;rounded=0;" vertex="1" parent="1">
          <mxGeometry x="-720" y="1070" width="60" height="30" as="geometry" />
        </mxCell>
        <mxCell id="B13nr5ae3nLlpFpf0Mui-94" value="N" style="text;html=1;align=center;verticalAlign=middle;whiteSpace=wrap;rounded=0;" vertex="1" parent="1">
          <mxGeometry x="-720" y="1210" width="60" height="30" as="geometry" />
        </mxCell>
        <mxCell id="B13nr5ae3nLlpFpf0Mui-95" value="N" style="text;html=1;align=center;verticalAlign=middle;whiteSpace=wrap;rounded=0;" vertex="1" parent="1">
          <mxGeometry x="-720" y="1350" width="60" height="30" as="geometry" />
        </mxCell>
        <mxCell id="B13nr5ae3nLlpFpf0Mui-96" value="N" style="text;html=1;align=center;verticalAlign=middle;whiteSpace=wrap;rounded=0;" vertex="1" parent="1">
          <mxGeometry x="-720" y="1490" width="60" height="30" as="geometry" />
        </mxCell>
        <mxCell id="B13nr5ae3nLlpFpf0Mui-97" value="N" style="text;html=1;align=center;verticalAlign=middle;whiteSpace=wrap;rounded=0;" vertex="1" parent="1">
          <mxGeometry x="-720" y="1630" width="60" height="30" as="geometry" />
        </mxCell>
        <mxCell id="B13nr5ae3nLlpFpf0Mui-98" value="N" style="text;html=1;align=center;verticalAlign=middle;whiteSpace=wrap;rounded=0;" vertex="1" parent="1">
          <mxGeometry x="-720" y="1770" width="60" height="30" as="geometry" />
        </mxCell>
        <mxCell id="B13nr5ae3nLlpFpf0Mui-99" value="N" style="text;html=1;align=center;verticalAlign=middle;whiteSpace=wrap;rounded=0;" vertex="1" parent="1">
          <mxGeometry x="-720" y="1910" width="60" height="30" as="geometry" />
        </mxCell>
        <mxCell id="B13nr5ae3nLlpFpf0Mui-100" value="N" style="text;html=1;align=center;verticalAlign=middle;whiteSpace=wrap;rounded=0;" vertex="1" parent="1">
          <mxGeometry x="-720" y="2050" width="60" height="30" as="geometry" />
        </mxCell>
        <mxCell id="B13nr5ae3nLlpFpf0Mui-101" value="N" style="text;html=1;align=center;verticalAlign=middle;whiteSpace=wrap;rounded=0;" vertex="1" parent="1">
          <mxGeometry x="-720" y="2180" width="60" height="30" as="geometry" />
        </mxCell>
        <mxCell id="B13nr5ae3nLlpFpf0Mui-102" value="N" style="text;html=1;align=center;verticalAlign=middle;whiteSpace=wrap;rounded=0;" vertex="1" parent="1">
          <mxGeometry x="-720" y="2308" width="60" height="30" as="geometry" />
        </mxCell>
        <mxCell id="B13nr5ae3nLlpFpf0Mui-103" value="Y" style="text;html=1;align=center;verticalAlign=middle;whiteSpace=wrap;rounded=0;" vertex="1" parent="1">
          <mxGeometry x="-670" y="2227.5" width="60" height="30" as="geometry" />
        </mxCell>
        <mxCell id="B13nr5ae3nLlpFpf0Mui-104" value="Y" style="text;html=1;align=center;verticalAlign=middle;whiteSpace=wrap;rounded=0;" vertex="1" parent="1">
          <mxGeometry x="-670" y="1980" width="60" height="30" as="geometry" />
        </mxCell>
        <mxCell id="B13nr5ae3nLlpFpf0Mui-105" value="Y" style="text;html=1;align=center;verticalAlign=middle;whiteSpace=wrap;rounded=0;" vertex="1" parent="1">
          <mxGeometry x="-670" y="1827.5" width="60" height="30" as="geometry" />
        </mxCell>
        <mxCell id="B13nr5ae3nLlpFpf0Mui-106" value="Y" style="text;html=1;align=center;verticalAlign=middle;whiteSpace=wrap;rounded=0;" vertex="1" parent="1">
          <mxGeometry x="-670" y="1700" width="60" height="30" as="geometry" />
        </mxCell>
        <mxCell id="B13nr5ae3nLlpFpf0Mui-107" value="Y" style="text;html=1;align=center;verticalAlign=middle;whiteSpace=wrap;rounded=0;" vertex="1" parent="1">
          <mxGeometry x="-670" y="1547.5" width="60" height="30" as="geometry" />
        </mxCell>
        <mxCell id="B13nr5ae3nLlpFpf0Mui-108" value="Y" style="text;html=1;align=center;verticalAlign=middle;whiteSpace=wrap;rounded=0;" vertex="1" parent="1">
          <mxGeometry x="-670" y="1420" width="60" height="30" as="geometry" />
        </mxCell>
        <mxCell id="B13nr5ae3nLlpFpf0Mui-109" value="Y" style="text;html=1;align=center;verticalAlign=middle;whiteSpace=wrap;rounded=0;" vertex="1" parent="1">
          <mxGeometry x="-670" y="1270" width="60" height="30" as="geometry" />
        </mxCell>
        <mxCell id="B13nr5ae3nLlpFpf0Mui-110" value="Y" style="text;html=1;align=center;verticalAlign=middle;whiteSpace=wrap;rounded=0;" vertex="1" parent="1">
          <mxGeometry x="-670" y="1117.5" width="60" height="30" as="geometry" />
        </mxCell>
        <mxCell id="B13nr5ae3nLlpFpf0Mui-111" value="Y" style="text;html=1;align=center;verticalAlign=middle;whiteSpace=wrap;rounded=0;" vertex="1" parent="1">
          <mxGeometry x="-670" y="987.5" width="60" height="30" as="geometry" />
        </mxCell>
        <mxCell id="B13nr5ae3nLlpFpf0Mui-112" value="Y" style="text;html=1;align=center;verticalAlign=middle;whiteSpace=wrap;rounded=0;" vertex="1" parent="1">
          <mxGeometry x="-670" y="857.5" width="60" height="30" as="geometry" />
        </mxCell>
        <mxCell id="B13nr5ae3nLlpFpf0Mui-113" value="Y" style="text;html=1;align=center;verticalAlign=middle;whiteSpace=wrap;rounded=0;" vertex="1" parent="1">
          <mxGeometry x="-670" y="737.5" width="60" height="30" as="geometry" />
        </mxCell>
        <mxCell id="B13nr5ae3nLlpFpf0Mui-114" value="Y" style="text;html=1;align=center;verticalAlign=middle;whiteSpace=wrap;rounded=0;" vertex="1" parent="1">
          <mxGeometry x="-670" y="607.5" width="60" height="30" as="geometry" />
        </mxCell>
        <mxCell id="B13nr5ae3nLlpFpf0Mui-115" value="Y" style="text;html=1;align=center;verticalAlign=middle;whiteSpace=wrap;rounded=0;" vertex="1" parent="1">
          <mxGeometry x="-670" y="220" width="60" height="30" as="geometry" />
        </mxCell>
        <mxCell id="B13nr5ae3nLlpFpf0Mui-116" value="Y" style="text;html=1;align=center;verticalAlign=middle;whiteSpace=wrap;rounded=0;" vertex="1" parent="1">
          <mxGeometry x="-670" y="470" width="60" height="30" as="geometry" />
        </mxCell>
        <mxCell id="B13nr5ae3nLlpFpf0Mui-117" value="Y" style="text;html=1;align=center;verticalAlign=middle;whiteSpace=wrap;rounded=0;" vertex="1" parent="1">
          <mxGeometry x="-670" y="347.5" width="60" height="30" as="geometry" />
        </mxCell>
        <mxCell id="B13nr5ae3nLlpFpf0Mui-118" value="" style="edgeStyle=orthogonalEdgeStyle;rounded=0;orthogonalLoop=1;jettySize=auto;html=1;" edge="1" parent="1" source="B13nr5ae3nLlpFpf0Mui-8" target="B13nr5ae3nLlpFpf0Mui-119">
          <mxGeometry relative="1" as="geometry">
            <mxPoint x="-650" y="260" as="sourcePoint" />
            <mxPoint x="-330" y="260" as="targetPoint" />
          </mxGeometry>
        </mxCell>
        <mxCell id="B13nr5ae3nLlpFpf0Mui-119" value="0000" style="rounded=0;whiteSpace=wrap;html=1;" vertex="1" parent="1">
          <mxGeometry x="-570" y="230" width="120" height="60" as="geometry" />
        </mxCell>
        <mxCell id="B13nr5ae3nLlpFpf0Mui-120" value="" style="edgeStyle=orthogonalEdgeStyle;rounded=0;orthogonalLoop=1;jettySize=auto;html=1;" edge="1" parent="1" source="B13nr5ae3nLlpFpf0Mui-11" target="B13nr5ae3nLlpFpf0Mui-121">
          <mxGeometry relative="1" as="geometry">
            <mxPoint x="-650" y="390" as="sourcePoint" />
            <mxPoint x="-330" y="390" as="targetPoint" />
          </mxGeometry>
        </mxCell>
        <mxCell id="B13nr5ae3nLlpFpf0Mui-121" value="0001" style="rounded=0;whiteSpace=wrap;html=1;" vertex="1" parent="1">
          <mxGeometry x="-570" y="360" width="120" height="60" as="geometry" />
        </mxCell>
        <mxCell id="B13nr5ae3nLlpFpf0Mui-122" value="Y" style="text;html=1;align=center;verticalAlign=middle;whiteSpace=wrap;rounded=0;" vertex="1" parent="1">
          <mxGeometry x="-675" y="2097.5" width="60" height="30" as="geometry" />
        </mxCell>
        <mxCell id="B13nr5ae3nLlpFpf0Mui-123" value="" style="edgeStyle=orthogonalEdgeStyle;rounded=0;orthogonalLoop=1;jettySize=auto;html=1;" edge="1" parent="1" source="B13nr5ae3nLlpFpf0Mui-14" target="B13nr5ae3nLlpFpf0Mui-124">
          <mxGeometry relative="1" as="geometry">
            <mxPoint x="-650" y="520" as="sourcePoint" />
            <mxPoint x="-330" y="520" as="targetPoint" />
          </mxGeometry>
        </mxCell>
        <mxCell id="B13nr5ae3nLlpFpf0Mui-124" value="0010" style="rounded=0;whiteSpace=wrap;html=1;" vertex="1" parent="1">
          <mxGeometry x="-570" y="490" width="120" height="60" as="geometry" />
        </mxCell>
        <mxCell id="B13nr5ae3nLlpFpf0Mui-125" value="" style="edgeStyle=orthogonalEdgeStyle;rounded=0;orthogonalLoop=1;jettySize=auto;html=1;" edge="1" parent="1" source="B13nr5ae3nLlpFpf0Mui-18" target="B13nr5ae3nLlpFpf0Mui-126">
          <mxGeometry relative="1" as="geometry">
            <mxPoint x="-650" y="650" as="sourcePoint" />
            <mxPoint x="-330" y="650" as="targetPoint" />
          </mxGeometry>
        </mxCell>
        <mxCell id="B13nr5ae3nLlpFpf0Mui-126" value="0011" style="rounded=0;whiteSpace=wrap;html=1;" vertex="1" parent="1">
          <mxGeometry x="-570" y="620" width="120" height="60" as="geometry" />
        </mxCell>
        <mxCell id="B13nr5ae3nLlpFpf0Mui-127" value="" style="edgeStyle=orthogonalEdgeStyle;rounded=0;orthogonalLoop=1;jettySize=auto;html=1;" edge="1" parent="1" source="B13nr5ae3nLlpFpf0Mui-24" target="B13nr5ae3nLlpFpf0Mui-128">
          <mxGeometry relative="1" as="geometry">
            <mxPoint x="-650" y="780" as="sourcePoint" />
            <mxPoint x="-329" y="780" as="targetPoint" />
          </mxGeometry>
        </mxCell>
        <mxCell id="B13nr5ae3nLlpFpf0Mui-128" value="0100" style="rounded=0;whiteSpace=wrap;html=1;" vertex="1" parent="1">
          <mxGeometry x="-570" y="750" width="120" height="60" as="geometry" />
        </mxCell>
        <mxCell id="B13nr5ae3nLlpFpf0Mui-129" value="" style="edgeStyle=orthogonalEdgeStyle;rounded=0;orthogonalLoop=1;jettySize=auto;html=1;" edge="1" parent="1" source="B13nr5ae3nLlpFpf0Mui-21" target="B13nr5ae3nLlpFpf0Mui-130">
          <mxGeometry relative="1" as="geometry">
            <mxPoint x="-650" y="900" as="sourcePoint" />
            <mxPoint x="-330" y="900" as="targetPoint" />
          </mxGeometry>
        </mxCell>
        <mxCell id="B13nr5ae3nLlpFpf0Mui-130" value="0101" style="rounded=0;whiteSpace=wrap;html=1;" vertex="1" parent="1">
          <mxGeometry x="-570" y="870" width="120" height="60" as="geometry" />
        </mxCell>
        <mxCell id="B13nr5ae3nLlpFpf0Mui-131" value="" style="edgeStyle=orthogonalEdgeStyle;rounded=0;orthogonalLoop=1;jettySize=auto;html=1;" edge="1" parent="1" source="B13nr5ae3nLlpFpf0Mui-30" target="B13nr5ae3nLlpFpf0Mui-132">
          <mxGeometry relative="1" as="geometry">
            <mxPoint x="-650" y="1030" as="sourcePoint" />
            <mxPoint x="-330" y="1030" as="targetPoint" />
          </mxGeometry>
        </mxCell>
        <mxCell id="B13nr5ae3nLlpFpf0Mui-132" value="0110" style="rounded=0;whiteSpace=wrap;html=1;" vertex="1" parent="1">
          <mxGeometry x="-570" y="1000" width="120" height="60" as="geometry" />
        </mxCell>
        <mxCell id="B13nr5ae3nLlpFpf0Mui-133" value="" style="edgeStyle=orthogonalEdgeStyle;rounded=0;orthogonalLoop=1;jettySize=auto;html=1;" edge="1" parent="1" source="B13nr5ae3nLlpFpf0Mui-27" target="B13nr5ae3nLlpFpf0Mui-134">
          <mxGeometry relative="1" as="geometry">
            <mxPoint x="-650" y="1160" as="sourcePoint" />
            <mxPoint x="-330" y="1160" as="targetPoint" />
          </mxGeometry>
        </mxCell>
        <mxCell id="B13nr5ae3nLlpFpf0Mui-134" value="0111" style="rounded=0;whiteSpace=wrap;html=1;" vertex="1" parent="1">
          <mxGeometry x="-570" y="1130" width="120" height="60" as="geometry" />
        </mxCell>
        <mxCell id="B13nr5ae3nLlpFpf0Mui-135" value="" style="edgeStyle=orthogonalEdgeStyle;rounded=0;orthogonalLoop=1;jettySize=auto;html=1;" edge="1" parent="1" source="B13nr5ae3nLlpFpf0Mui-33" target="B13nr5ae3nLlpFpf0Mui-136">
          <mxGeometry relative="1" as="geometry">
            <mxPoint x="-650" y="1300" as="sourcePoint" />
            <mxPoint x="-330" y="1300" as="targetPoint" />
          </mxGeometry>
        </mxCell>
        <mxCell id="B13nr5ae3nLlpFpf0Mui-136" value="1000" style="rounded=0;whiteSpace=wrap;html=1;" vertex="1" parent="1">
          <mxGeometry x="-570" y="1270" width="120" height="60" as="geometry" />
        </mxCell>
        <mxCell id="B13nr5ae3nLlpFpf0Mui-137" value="" style="edgeStyle=orthogonalEdgeStyle;rounded=0;orthogonalLoop=1;jettySize=auto;html=1;" edge="1" parent="1" source="B13nr5ae3nLlpFpf0Mui-36" target="B13nr5ae3nLlpFpf0Mui-138">
          <mxGeometry relative="1" as="geometry">
            <mxPoint x="-650" y="1450" as="sourcePoint" />
            <mxPoint x="-330" y="1450" as="targetPoint" />
          </mxGeometry>
        </mxCell>
        <mxCell id="B13nr5ae3nLlpFpf0Mui-138" value="1001" style="rounded=0;whiteSpace=wrap;html=1;" vertex="1" parent="1">
          <mxGeometry x="-570" y="1420" width="120" height="60" as="geometry" />
        </mxCell>
        <mxCell id="B13nr5ae3nLlpFpf0Mui-139" value="" style="edgeStyle=orthogonalEdgeStyle;rounded=0;orthogonalLoop=1;jettySize=auto;html=1;" edge="1" parent="1" source="B13nr5ae3nLlpFpf0Mui-39" target="B13nr5ae3nLlpFpf0Mui-140">
          <mxGeometry relative="1" as="geometry">
            <mxPoint x="-650" y="1590" as="sourcePoint" />
            <mxPoint x="-330" y="1590" as="targetPoint" />
          </mxGeometry>
        </mxCell>
        <mxCell id="B13nr5ae3nLlpFpf0Mui-140" value="1010" style="rounded=0;whiteSpace=wrap;html=1;" vertex="1" parent="1">
          <mxGeometry x="-570" y="1560" width="120" height="60" as="geometry" />
        </mxCell>
        <mxCell id="B13nr5ae3nLlpFpf0Mui-141" value="" style="edgeStyle=orthogonalEdgeStyle;rounded=0;orthogonalLoop=1;jettySize=auto;html=1;" edge="1" parent="1" source="B13nr5ae3nLlpFpf0Mui-42" target="B13nr5ae3nLlpFpf0Mui-142">
          <mxGeometry relative="1" as="geometry">
            <mxPoint x="-650" y="1730" as="sourcePoint" />
            <mxPoint x="-330" y="1730" as="targetPoint" />
          </mxGeometry>
        </mxCell>
        <mxCell id="B13nr5ae3nLlpFpf0Mui-142" value="1011" style="rounded=0;whiteSpace=wrap;html=1;" vertex="1" parent="1">
          <mxGeometry x="-570" y="1700" width="120" height="60" as="geometry" />
        </mxCell>
        <mxCell id="B13nr5ae3nLlpFpf0Mui-143" value="" style="edgeStyle=orthogonalEdgeStyle;rounded=0;orthogonalLoop=1;jettySize=auto;html=1;" edge="1" parent="1" source="B13nr5ae3nLlpFpf0Mui-45" target="B13nr5ae3nLlpFpf0Mui-144">
          <mxGeometry relative="1" as="geometry">
            <mxPoint x="-650" y="1870" as="sourcePoint" />
            <mxPoint x="-330" y="1870" as="targetPoint" />
          </mxGeometry>
        </mxCell>
        <mxCell id="B13nr5ae3nLlpFpf0Mui-144" value="1100" style="rounded=0;whiteSpace=wrap;html=1;" vertex="1" parent="1">
          <mxGeometry x="-570" y="1840" width="120" height="60" as="geometry" />
        </mxCell>
        <mxCell id="B13nr5ae3nLlpFpf0Mui-145" value="" style="edgeStyle=orthogonalEdgeStyle;rounded=0;orthogonalLoop=1;jettySize=auto;html=1;" edge="1" parent="1" source="B13nr5ae3nLlpFpf0Mui-48" target="B13nr5ae3nLlpFpf0Mui-146">
          <mxGeometry relative="1" as="geometry">
            <mxPoint x="-650" y="2010" as="sourcePoint" />
            <mxPoint x="-330" y="2010" as="targetPoint" />
          </mxGeometry>
        </mxCell>
        <mxCell id="B13nr5ae3nLlpFpf0Mui-146" value="1101" style="rounded=0;whiteSpace=wrap;html=1;" vertex="1" parent="1">
          <mxGeometry x="-570" y="1980" width="120" height="60" as="geometry" />
        </mxCell>
        <mxCell id="B13nr5ae3nLlpFpf0Mui-147" value="" style="edgeStyle=orthogonalEdgeStyle;rounded=0;orthogonalLoop=1;jettySize=auto;html=1;" edge="1" parent="1" source="B13nr5ae3nLlpFpf0Mui-51" target="B13nr5ae3nLlpFpf0Mui-148">
          <mxGeometry relative="1" as="geometry">
            <mxPoint x="-650" y="2140" as="sourcePoint" />
            <mxPoint x="-330" y="2140" as="targetPoint" />
          </mxGeometry>
        </mxCell>
        <mxCell id="B13nr5ae3nLlpFpf0Mui-148" value="1110" style="rounded=0;whiteSpace=wrap;html=1;" vertex="1" parent="1">
          <mxGeometry x="-570" y="2110" width="120" height="60" as="geometry" />
        </mxCell>
        <mxCell id="B13nr5ae3nLlpFpf0Mui-149" value="" style="edgeStyle=orthogonalEdgeStyle;rounded=0;orthogonalLoop=1;jettySize=auto;html=1;" edge="1" parent="1" source="B13nr5ae3nLlpFpf0Mui-54" target="B13nr5ae3nLlpFpf0Mui-150">
          <mxGeometry relative="1" as="geometry">
            <mxPoint x="-650" y="2270" as="sourcePoint" />
            <mxPoint x="-330" y="2270" as="targetPoint" />
          </mxGeometry>
        </mxCell>
        <mxCell id="B13nr5ae3nLlpFpf0Mui-150" value="1111" style="rounded=0;whiteSpace=wrap;html=1;" vertex="1" parent="1">
          <mxGeometry x="-570" y="2240" width="120" height="60" as="geometry" />
        </mxCell>
        <mxCell id="B13nr5ae3nLlpFpf0Mui-287" value="" style="edgeStyle=orthogonalEdgeStyle;rounded=0;orthogonalLoop=1;jettySize=auto;html=1;" edge="1" parent="1" source="B13nr5ae3nLlpFpf0Mui-288" target="B13nr5ae3nLlpFpf0Mui-289">
          <mxGeometry relative="1" as="geometry" />
        </mxCell>
        <mxCell id="B13nr5ae3nLlpFpf0Mui-288" value="" style="ellipse;whiteSpace=wrap;html=1;aspect=fixed;" vertex="1" parent="1">
          <mxGeometry x="-722.5" y="2420" width="25" height="25" as="geometry" />
        </mxCell>
        <mxCell id="B13nr5ae3nLlpFpf0Mui-289" value="END" style="ellipse;whiteSpace=wrap;html=1;" vertex="1" parent="1">
          <mxGeometry x="-770" y="2510" width="120" height="80" as="geometry" />
        </mxCell>
        <mxCell id="B13nr5ae3nLlpFpf0Mui-290" value="" style="edgeStyle=orthogonalEdgeStyle;rounded=0;orthogonalLoop=1;jettySize=auto;html=1;" edge="1" parent="1" source="B13nr5ae3nLlpFpf0Mui-291" target="B13nr5ae3nLlpFpf0Mui-293">
          <mxGeometry relative="1" as="geometry" />
        </mxCell>
        <mxCell id="B13nr5ae3nLlpFpf0Mui-291" value="เลขเป็นคำ" style="ellipse;whiteSpace=wrap;html=1;" vertex="1" parent="1">
          <mxGeometry x="-170" y="40" width="120" height="80" as="geometry" />
        </mxCell>
        <mxCell id="B13nr5ae3nLlpFpf0Mui-292" value="" style="edgeStyle=orthogonalEdgeStyle;rounded=0;orthogonalLoop=1;jettySize=auto;html=1;" edge="1" parent="1" source="B13nr5ae3nLlpFpf0Mui-293" target="B13nr5ae3nLlpFpf0Mui-295">
          <mxGeometry relative="1" as="geometry" />
        </mxCell>
        <mxCell id="B13nr5ae3nLlpFpf0Mui-293" value="รับข้อมูลUser" style="shape=parallelogram;perimeter=parallelogramPerimeter;whiteSpace=wrap;html=1;fixedSize=1;" vertex="1" parent="1">
          <mxGeometry x="-205" y="150" width="190" height="60" as="geometry" />
        </mxCell>
        <mxCell id="B13nr5ae3nLlpFpf0Mui-294" value="" style="edgeStyle=orthogonalEdgeStyle;rounded=0;orthogonalLoop=1;jettySize=auto;html=1;" edge="1" parent="1" source="B13nr5ae3nLlpFpf0Mui-295" target="B13nr5ae3nLlpFpf0Mui-298">
          <mxGeometry relative="1" as="geometry" />
        </mxCell>
        <mxCell id="B13nr5ae3nLlpFpf0Mui-295" value="เลขเป็นคำ" style="shape=process;whiteSpace=wrap;html=1;backgroundOutline=1;" vertex="1" parent="1">
          <mxGeometry x="-195" y="260" width="170" height="60" as="geometry" />
        </mxCell>
        <mxCell id="B13nr5ae3nLlpFpf0Mui-296" value="END" style="ellipse;whiteSpace=wrap;html=1;" vertex="1" parent="1">
          <mxGeometry x="-170" y="480" width="120" height="80" as="geometry" />
        </mxCell>
        <mxCell id="B13nr5ae3nLlpFpf0Mui-297" value="" style="edgeStyle=orthogonalEdgeStyle;rounded=0;orthogonalLoop=1;jettySize=auto;html=1;" edge="1" parent="1" source="B13nr5ae3nLlpFpf0Mui-298" target="B13nr5ae3nLlpFpf0Mui-296">
          <mxGeometry relative="1" as="geometry" />
        </mxCell>
        <mxCell id="B13nr5ae3nLlpFpf0Mui-298" value="แสดงเลขที่ถูกแปลง" style="shape=parallelogram;perimeter=parallelogramPerimeter;whiteSpace=wrap;html=1;fixedSize=1;" vertex="1" parent="1">
          <mxGeometry x="-205" y="370" width="190" height="60" as="geometry" />
        </mxCell>
      </root>
    </mxGraphModel>
  </diagram>
</mxfile>
